<?xml version="1.0" encoding="UTF-8"?>
<svg xmlns="http://www.w3.org/2000/svg" xmlns:xlink="http://www.w3.org/1999/xlink" width="64px" height="64px" viewBox="0 0 64 64" version="1.1">
<defs>
<clipPath id="clip1">
  <path d="M 2.855469 3.003906 L 19.5 3.003906 L 19.5 26.816406 L 2.855469 26.816406 Z M 2.855469 3.003906 "/>
</clipPath>
<clipPath id="clip2">
  <path d="M 2.855469 20.351562 C 3.636719 18.460938 4.082031 17.628906 4.492188 16.878906 C 4.929688 16.097656 5.367188 15.328125 5.90625 14.515625 C 6.523438 13.589844 7.289062 12.589844 8.011719 11.648438 C 8.75 10.683594 9.523438 9.703125 10.289062 8.789062 C 11.019531 7.929688 11.6875 7.152344 12.488281 6.308594 C 13.367188 5.371094 14.945312 3.804688 15.375 3.421875 C 15.488281 3.320312 15.507812 3.289062 15.605469 3.242188 C 15.742188 3.164062 15.976562 3.078125 16.164062 3.066406 C 16.351562 3.054688 16.585938 3.117188 16.738281 3.171875 C 16.84375 3.210938 16.90625 3.246094 16.988281 3.320312 C 17.105469 3.429688 17.269531 3.609375 17.351562 3.785156 C 17.425781 3.953125 17.449219 4.195312 17.449219 4.359375 C 17.449219 4.472656 17.4375 4.539062 17.398438 4.648438 C 17.34375 4.796875 17.136719 5.160156 17.101562 5.148438 C 17.039062 5.121094 17.257812 3.765625 17.355469 3.765625 C 17.460938 3.765625 17.644531 4.742188 17.710938 5.289062 C 17.789062 5.941406 17.769531 6.757812 17.738281 7.414062 C 17.710938 7.972656 17.648438 8.359375 17.574219 8.972656 C 17.457031 9.867188 17.304688 10.882812 17.070312 12.265625 C 16.664062 14.621094 15.5625 19.820312 15.238281 21.789062 C 15.09375 22.671875 15.039062 23.054688 14.976562 23.714844 C 14.914062 24.402344 14.988281 25.382812 14.863281 25.847656 C 14.792969 26.085938 14.679688 26.234375 14.582031 26.359375 C 14.511719 26.445312 14.457031 26.496094 14.363281 26.554688 C 14.226562 26.632812 14 26.734375 13.8125 26.753906 C 13.625 26.773438 13.386719 26.722656 13.238281 26.679688 C 13.125 26.640625 13.0625 26.609375 12.976562 26.535156 C 12.851562 26.433594 12.679688 26.265625 12.59375 26.097656 C 12.507812 25.929688 12.539062 25.746094 12.460938 25.527344 C 12.351562 25.191406 12.15625 24.785156 11.917969 24.296875 C 11.5625 23.546875 11.023438 22.703125 10.46875 21.507812 C 9.519531 19.476562 7.65625 14.808594 6.976562 13.097656 C 6.679688 12.347656 6.488281 12.046875 6.363281 11.476562 C 6.226562 10.898438 5.949219 10.039062 6.207031 9.640625 C 6.445312 9.257812 7.292969 9.027344 7.757812 9.070312 C 8.148438 9.101562 8.398438 9.410156 8.820312 9.691406 C 9.480469 10.140625 10.46875 10.996094 11.273438 11.597656 C 12.03125 12.160156 12.695312 12.652344 13.511719 13.203125 C 14.449219 13.839844 15.59375 14.554688 16.617188 15.171875 C 17.585938 15.765625 19.324219 16.160156 19.480469 16.839844 C 19.617188 17.421875 18.75 18.726562 18.132812 18.871094 C 17.414062 19.035156 16.261719 17.808594 15.300781 17.222656 C 14.257812 16.589844 13.074219 15.851562 12.101562 15.191406 C 11.25 14.617188 10.460938 14.039062 9.75 13.496094 C 9.125 13.023438 8.570312 12.585938 8.03125 12.132812 C 7.539062 11.722656 6.617188 11.304688 6.644531 10.921875 C 6.667969 10.515625 7.980469 9.660156 8.355469 9.785156 C 8.695312 9.898438 8.625 10.609375 8.894531 11.316406 C 9.519531 12.945312 11.449219 17.578125 12.210938 19.371094 C 12.601562 20.277344 12.75 20.683594 13.113281 21.414062 C 13.554688 22.304688 14.457031 23.535156 14.71875 24.320312 C 14.882812 24.804688 14.917969 25.222656 14.898438 25.554688 C 14.886719 25.777344 14.820312 25.976562 14.75 26.121094 C 14.707031 26.222656 14.664062 26.277344 14.582031 26.359375 C 14.46875 26.472656 14.273438 26.621094 14.101562 26.683594 C 13.917969 26.753906 13.675781 26.757812 13.519531 26.746094 C 13.40625 26.742188 13.335938 26.722656 13.238281 26.679688 C 13.085938 26.609375 12.867188 26.453125 12.757812 26.339844 C 12.679688 26.257812 12.636719 26.195312 12.59375 26.097656 C 12.53125 25.945312 12.480469 25.777344 12.460938 25.527344 C 12.417969 25.046875 12.492188 24.097656 12.5625 23.390625 C 12.625 22.703125 12.6875 22.277344 12.84375 21.351562 C 13.175781 19.347656 14.261719 14.203125 14.664062 11.882812 C 14.894531 10.539062 15.039062 9.523438 15.148438 8.695312 C 15.21875 8.179688 15.269531 7.972656 15.300781 7.429688 C 15.367188 6.464844 15.050781 3.984375 15.375 3.421875 C 15.5 3.210938 15.695312 3.179688 15.875 3.121094 C 16.054688 3.066406 16.300781 3.066406 16.457031 3.085938 C 16.570312 3.097656 16.648438 3.132812 16.738281 3.171875 C 16.824219 3.210938 16.90625 3.246094 16.988281 3.320312 C 17.105469 3.429688 17.269531 3.609375 17.351562 3.785156 C 17.425781 3.953125 17.460938 4.171875 17.449219 4.359375 C 17.445312 4.546875 17.417969 4.679688 17.28125 4.914062 C 16.894531 5.554688 15.03125 7.160156 14.300781 7.933594 C 13.867188 8.398438 13.632812 8.683594 13.28125 9.070312 C 12.917969 9.484375 12.601562 9.828125 12.175781 10.339844 C 11.554688 11.070312 10.679688 12.179688 9.976562 13.097656 C 9.28125 13.996094 8.476562 15.070312 7.980469 15.796875 C 7.664062 16.265625 7.523438 16.503906 7.242188 16.996094 C 6.792969 17.765625 5.980469 19.191406 5.617188 19.984375 C 5.394531 20.492188 5.480469 21.101562 5.148438 21.253906 C 4.707031 21.453125 2.855469 20.351562 2.855469 20.351562 "/>
</clipPath>
<clipPath id="clip3">
  <path d="M 14.007812 18.820312 L 22.332031 18.820312 L 22.332031 30.695312 L 14.007812 30.695312 Z M 14.007812 18.820312 "/>
</clipPath>
<clipPath id="clip4">
  <path d="M 19.429688 20.382812 C 19.007812 22.289062 18.78125 23.058594 18.554688 23.679688 C 18.355469 24.242188 18.179688 24.652344 17.882812 25.257812 C 17.460938 26.132812 16.613281 27.867188 16.179688 28.371094 C 16 28.570312 15.886719 28.648438 15.710938 28.722656 C 15.539062 28.789062 15.292969 28.816406 15.136719 28.816406 C 15.023438 28.808594 14.945312 28.785156 14.851562 28.753906 C 14.757812 28.722656 14.675781 28.695312 14.582031 28.628906 C 14.457031 28.535156 14.273438 28.371094 14.179688 28.210938 C 14.085938 28.039062 14.03125 27.804688 14.019531 27.648438 C 14.007812 27.535156 14.011719 27.492188 14.042969 27.351562 C 14.113281 27.023438 14.40625 26.242188 14.613281 25.683594 C 14.832031 25.128906 15.085938 24.515625 15.324219 24.023438 C 15.519531 23.609375 15.648438 23.371094 15.898438 22.921875 C 16.304688 22.195312 17.054688 20.828125 17.582031 20.101562 C 17.949219 19.597656 18.1875 19.058594 18.632812 18.898438 C 19.09375 18.726562 19.886719 18.878906 20.320312 19.152344 C 20.730469 19.429688 20.925781 20.023438 21.179688 20.515625 C 21.449219 21.039062 21.699219 21.683594 21.875 22.226562 C 22.023438 22.691406 22.117188 23.066406 22.195312 23.554688 C 22.28125 24.128906 22.34375 24.898438 22.332031 25.464844 C 22.320312 25.941406 22.261719 26.328125 22.175781 26.753906 C 22.085938 27.179688 21.949219 27.597656 21.800781 28.023438 C 21.644531 28.464844 21.511719 28.964844 21.238281 29.371094 C 20.945312 29.804688 20.507812 30.304688 20.054688 30.507812 C 19.644531 30.703125 19.136719 30.671875 18.667969 30.660156 C 18.1875 30.640625 17.6875 30.515625 17.207031 30.410156 C 16.730469 30.304688 16.269531 30.214844 15.8125 30.023438 C 15.3125 29.816406 14.625 29.441406 14.335938 29.160156 C 14.167969 29.003906 13.988281 28.851562 14.03125 28.691406 C 14.117188 28.339844 15.707031 27.554688 16.175781 27.535156 C 16.398438 27.523438 16.46875 27.671875 16.679688 27.746094 C 17.03125 27.867188 17.644531 28.128906 18.101562 28.109375 C 18.523438 28.097656 19.039062 27.984375 19.320312 27.695312 C 19.617188 27.398438 19.679688 26.765625 19.78125 26.296875 C 19.882812 25.835938 19.949219 25.371094 19.929688 24.910156 C 19.917969 24.453125 19.824219 24.003906 19.699219 23.535156 C 19.570312 23.027344 19.351562 22.464844 19.132812 21.984375 C 18.9375 21.546875 18.382812 20.867188 18.480469 20.757812 C 18.582031 20.660156 19.585938 20.976562 19.695312 21.320312 C 19.855469 21.851562 18.5 23.253906 18.070312 24.039062 C 17.742188 24.628906 17.523438 25.007812 17.269531 25.601562 C 16.945312 26.335938 16.53125 27.722656 16.335938 28.121094 C 16.269531 28.253906 16.257812 28.285156 16.179688 28.371094 C 16.070312 28.484375 15.886719 28.648438 15.710938 28.722656 C 15.539062 28.789062 15.292969 28.816406 15.136719 28.816406 C 15.023438 28.808594 14.957031 28.796875 14.851562 28.753906 C 14.699219 28.695312 14.488281 28.578125 14.355469 28.441406 C 14.226562 28.304688 14.117188 28.085938 14.0625 27.933594 C 14.023438 27.828125 14.011719 27.757812 14.019531 27.648438 C 14.019531 27.492188 14.042969 27.328125 14.136719 27.078125 C 14.351562 26.492188 15.25 25.109375 15.625 24.339844 C 15.894531 23.796875 16.054688 23.414062 16.242188 22.914062 C 16.445312 22.371094 16.636719 21.734375 16.769531 21.195312 C 16.886719 20.734375 16.71875 20.078125 17.019531 19.878906 C 17.425781 19.609375 19.429688 20.382812 19.429688 20.382812 "/>
</clipPath>
<clipPath id="clip5">
  <path d="M 19.925781 25.1875 L 28.328125 25.1875 L 28.328125 33.554688 L 19.925781 33.554688 Z M 19.925781 25.1875 "/>
</clipPath>
<clipPath id="clip6">
  <path d="M 19.9375 30.742188 C 20.226562 28.632812 20.460938 28.265625 20.773438 27.871094 C 21.136719 27.402344 21.730469 26.871094 22.199219 26.507812 C 22.585938 26.210938 22.960938 26.003906 23.355469 25.804688 C 23.730469 25.617188 24.074219 25.429688 24.492188 25.335938 C 24.976562 25.226562 25.625 25.164062 26.101562 25.265625 C 26.511719 25.359375 26.875 25.558594 27.199219 25.835938 C 27.554688 26.140625 27.929688 26.597656 28.105469 27.058594 C 28.289062 27.523438 28.34375 28.128906 28.257812 28.609375 C 28.167969 29.078125 27.914062 29.589844 27.613281 29.921875 C 27.332031 30.226562 26.945312 30.402344 26.53125 30.570312 C 26.054688 30.773438 25.34375 30.914062 24.894531 30.976562 C 24.585938 31.015625 24.117188 30.964844 24.113281 30.996094 C 24.113281 31.023438 24.480469 31.101562 24.699219 31.121094 C 24.976562 31.148438 25.613281 31.039062 25.644531 31.070312 C 25.648438 31.070312 25.644531 31.070312 25.644531 31.085938 C 25.644531 31.191406 25.644531 33.390625 25.644531 33.496094 C 25.644531 33.503906 25.644531 33.503906 25.644531 33.507812 C 25.605469 33.539062 24.90625 33.535156 24.53125 33.503906 C 24.132812 33.464844 23.730469 33.378906 23.304688 33.285156 C 22.832031 33.179688 22.269531 33.070312 21.820312 32.878906 C 21.40625 32.703125 21 32.527344 20.695312 32.203125 C 20.355469 31.839844 19.9375 30.742188 19.9375 30.742188 M 23.550781 28.578125 C 25.09375 28.464844 23.863281 28.378906 23.664062 28.464844 C 23.59375 28.492188 23.550781 28.578125 23.550781 28.578125 "/>
</clipPath>
<clipPath id="clip7">
  <path d="M 23.871094 29.59375 L 31.996094 29.59375 L 31.996094 37.332031 L 23.871094 37.332031 Z M 23.871094 29.59375 "/>
</clipPath>
<clipPath id="clip8">
  <path d="M 28.570312 32.054688 C 27.21875 32.445312 26.648438 32.746094 26.511719 33.101562 C 26.382812 33.441406 26.480469 34.046875 26.730469 34.335938 C 27.011719 34.660156 27.761719 34.796875 28.25 34.835938 C 28.675781 34.871094 29.125 34.796875 29.476562 34.632812 C 29.804688 34.492188 29.992188 33.945312 30.3125 33.964844 C 30.789062 34.003906 32 35.339844 31.988281 35.734375 C 31.988281 35.941406 31.707031 36.039062 31.507812 36.195312 C 31.226562 36.414062 30.84375 36.695312 30.4375 36.878906 C 29.96875 37.085938 29.351562 37.257812 28.832031 37.304688 C 28.355469 37.339844 27.914062 37.257812 27.445312 37.164062 C 26.945312 37.058594 26.386719 36.921875 25.925781 36.691406 C 25.480469 36.460938 25.042969 36.171875 24.710938 35.785156 C 24.367188 35.378906 24.039062 34.804688 23.929688 34.277344 C 23.824219 33.773438 23.917969 33.164062 24.054688 32.691406 C 24.179688 32.253906 24.40625 31.867188 24.664062 31.515625 C 24.917969 31.164062 25.226562 30.847656 25.59375 30.585938 C 26.007812 30.296875 26.605469 30.054688 27.050781 29.898438 C 27.40625 29.765625 27.789062 29.496094 28.03125 29.652344 C 28.414062 29.882812 28.570312 32.054688 28.570312 32.054688 "/>
</clipPath>
<clipPath id="clip9">
  <path d="M 27.5 29.195312 L 36.917969 29.195312 L 36.917969 41.082031 L 27.5 41.082031 Z M 27.5 29.195312 "/>
</clipPath>
<clipPath id="clip10">
  <path d="M 35.257812 30.410156 C 32.75 34.558594 30.585938 38.554688 29.75 38.523438 C 29.335938 38.507812 28.84375 37.558594 28.867188 37.128906 C 28.898438 36.722656 29.449219 36.273438 29.820312 35.996094 C 30.164062 35.734375 30.5625 35.632812 30.988281 35.476562 C 31.476562 35.304688 32.050781 35.089844 32.574219 35.003906 C 33.082031 34.921875 33.601562 34.859375 34.082031 34.964844 C 34.570312 35.078125 35.082031 35.398438 35.480469 35.683594 C 35.835938 35.933594 36.15625 36.183594 36.386719 36.539062 C 36.644531 36.941406 36.882812 37.539062 36.914062 38.003906 C 36.9375 38.414062 36.773438 38.796875 36.636719 39.191406 C 36.488281 39.621094 36.113281 40.503906 36.019531 40.492188 C 35.96875 40.476562 36.074219 40.117188 35.96875 40.054688 C 35.71875 39.910156 34.050781 41.265625 33.742188 41.046875 C 33.480469 40.859375 33.738281 39.828125 33.882812 39.316406 C 34.007812 38.859375 34.554688 38.433594 34.488281 38.097656 C 34.417969 37.777344 33.898438 37.390625 33.539062 37.316406 C 33.167969 37.234375 32.695312 37.527344 32.28125 37.660156 C 31.867188 37.785156 31.460938 37.921875 31.0625 38.089844 C 30.664062 38.257812 30.3125 38.503906 29.894531 38.683594 C 29.449219 38.882812 28.851562 39.351562 28.457031 39.222656 C 28.039062 39.078125 27.519531 38.164062 27.511719 37.679688 C 27.507812 37.246094 27.867188 36.984375 28.210938 36.460938 C 28.90625 35.390625 30.773438 33.128906 31.648438 31.785156 C 32.273438 30.820312 32.460938 29.398438 33.101562 29.214844 C 33.6875 29.054688 35.257812 30.410156 35.257812 30.410156 "/>
</clipPath>
<clipPath id="clip11">
  <path d="M 36.75 36.175781 L 44.472656 36.175781 L 44.472656 44.566406 L 36.75 44.566406 Z M 36.75 36.175781 "/>
</clipPath>
<clipPath id="clip12">
  <path d="M 37.710938 38.859375 C 39.480469 38.992188 40.082031 39.023438 40.632812 38.976562 C 41.1875 38.929688 42.289062 38.714844 42.289062 38.683594 C 42.28125 38.660156 41.460938 38.765625 41.050781 38.757812 C 40.632812 38.753906 40.082031 38.464844 39.78125 38.640625 C 39.476562 38.816406 39.292969 39.414062 39.230469 39.828125 C 39.167969 40.226562 39.207031 40.703125 39.382812 41.058594 C 39.5625 41.421875 40 41.839844 40.304688 41.972656 C 40.53125 42.066406 40.832031 41.839844 40.96875 41.992188 C 41.238281 42.277344 41.269531 44.097656 40.894531 44.429688 C 40.582031 44.695312 39.761719 44.402344 39.261719 44.253906 C 38.800781 44.117188 38.320312 43.929688 37.988281 43.601562 C 37.636719 43.273438 37.429688 42.726562 37.238281 42.273438 C 37.050781 41.839844 36.90625 41.402344 36.835938 40.953125 C 36.761719 40.503906 36.742188 40.046875 36.804688 39.570312 C 36.867188 39.046875 37.023438 38.421875 37.269531 37.929688 C 37.5 37.453125 37.78125 36.953125 38.199219 36.664062 C 38.625 36.367188 39.292969 36.257812 39.820312 36.203125 C 40.304688 36.152344 40.769531 36.214844 41.238281 36.304688 C 41.710938 36.390625 42.226562 36.515625 42.65625 36.734375 C 43.070312 36.945312 43.46875 37.246094 43.769531 37.585938 C 44.054688 37.914062 44.382812 38.289062 44.4375 38.722656 C 44.507812 39.226562 44.304688 40.035156 43.949219 40.445312 C 43.601562 40.851562 42.875 41.015625 42.324219 41.179688 C 41.804688 41.335938 41.355469 41.378906 40.730469 41.414062 C 39.84375 41.464844 37.957031 41.828125 37.5 41.316406 C 37.101562 40.867188 37.710938 38.859375 37.710938 38.859375 "/>
</clipPath>
<clipPath id="clip13">
  <path d="M 39.167969 42.097656 L 49.496094 42.097656 L 49.496094 49.9375 L 39.167969 49.9375 Z M 39.167969 42.097656 "/>
</clipPath>
<clipPath id="clip14">
  <path d="M 44.226562 44.089844 C 40.664062 46.648438 40.5 46.648438 40.34375 46.652344 C 40.230469 46.652344 40.148438 46.632812 40.054688 46.601562 C 39.960938 46.578125 39.875 46.554688 39.78125 46.492188 C 39.648438 46.402344 39.457031 46.214844 39.363281 46.089844 C 39.292969 45.996094 39.261719 45.933594 39.230469 45.820312 C 39.195312 45.671875 39.167969 45.402344 39.179688 45.242188 C 39.195312 45.128906 39.210938 45.058594 39.261719 44.960938 C 39.332031 44.816406 39.429688 44.601562 39.613281 44.492188 C 39.882812 44.328125 40.355469 44.398438 40.855469 44.304688 C 41.605469 44.164062 42.707031 43.867188 43.679688 43.671875 C 44.710938 43.472656 45.945312 43.132812 46.894531 43.128906 C 47.648438 43.128906 48.507812 43.117188 48.9375 43.460938 C 49.300781 43.757812 49.480469 44.421875 49.476562 44.882812 C 49.46875 45.328125 49.179688 45.785156 48.9375 46.191406 C 48.695312 46.601562 48.34375 46.996094 48.007812 47.339844 C 47.679688 47.664062 47.019531 48.265625 46.960938 48.214844 C 46.917969 48.179688 47.332031 47.378906 47.417969 47.402344 C 47.5625 47.441406 47.675781 49.546875 47.355469 49.839844 C 47.15625 50.023438 46.75 49.871094 46.425781 49.785156 C 46.023438 49.671875 45.445312 49.445312 45.148438 49.121094 C 44.867188 48.816406 44.667969 48.339844 44.65625 47.933594 C 44.644531 47.515625 44.851562 47.003906 45.085938 46.648438 C 45.320312 46.296875 45.6875 45.984375 46.054688 45.804688 C 46.417969 45.621094 47.28125 45.546875 47.28125 45.535156 C 47.273438 45.515625 45.0625 45.882812 44.21875 46.054688 C 43.613281 46.171875 43.1875 46.351562 42.675781 46.402344 C 42.167969 46.460938 41.445312 46.289062 41.164062 46.371094 C 41.039062 46.410156 41.019531 46.492188 40.914062 46.527344 C 40.769531 46.589844 40.53125 46.660156 40.34375 46.652344 C 40.15625 46.648438 39.949219 46.585938 39.78125 46.492188 C 39.617188 46.398438 39.460938 46.246094 39.363281 46.089844 C 39.257812 45.929688 39.1875 45.722656 39.175781 45.535156 C 39.15625 45.347656 39.210938 45.109375 39.261719 44.960938 C 39.300781 44.851562 39.324219 44.804688 39.414062 44.703125 C 39.574219 44.496094 39.9375 44.203125 40.324219 43.890625 C 40.929688 43.398438 42.082031 42.023438 42.75 42.121094 C 43.355469 42.210938 44.226562 44.089844 44.226562 44.089844 "/>
</clipPath>
<clipPath id="clip15">
  <path d="M 46.054688 46.25 L 54.25 46.25 L 54.25 55.082031 L 46.054688 55.082031 Z M 46.054688 46.25 "/>
</clipPath>
<clipPath id="clip16">
  <path d="M 50.726562 48.304688 C 49.414062 49.210938 48.742188 49.640625 48.800781 49.789062 C 48.851562 49.945312 49.625 49.992188 50.011719 49.890625 C 50.4375 49.777344 50.867188 49.402344 51.226562 49.089844 C 51.582031 48.785156 51.875 48.273438 52.148438 48.039062 C 52.332031 47.890625 52.46875 47.796875 52.648438 47.742188 C 52.832031 47.679688 53.074219 47.683594 53.230469 47.703125 C 53.34375 47.714844 53.414062 47.734375 53.511719 47.785156 C 53.648438 47.859375 53.855469 47.996094 53.976562 48.148438 C 54.085938 48.289062 54.175781 48.523438 54.210938 48.671875 C 54.242188 48.785156 54.242188 48.851562 54.230469 48.964844 C 54.210938 49.128906 54.179688 49.277344 54.0625 49.527344 C 53.769531 50.140625 52.375 52.265625 52.039062 52.492188 C 51.960938 52.539062 51.90625 52.472656 51.863281 52.527344 C 51.6875 52.742188 52.1875 54.660156 51.835938 54.964844 C 51.582031 55.195312 50.898438 55.027344 50.5 54.820312 C 50.042969 54.585938 49.46875 53.996094 49.320312 53.496094 C 49.179688 53.023438 49.394531 52.382812 49.570312 51.910156 C 49.730469 51.464844 49.988281 51.191406 50.292969 50.722656 C 50.761719 50.003906 51.695312 48.476562 52.148438 48.039062 C 52.34375 47.859375 52.5 47.796875 52.648438 47.742188 C 52.757812 47.695312 52.824219 47.683594 52.9375 47.683594 C 53.09375 47.683594 53.363281 47.726562 53.511719 47.785156 C 53.617188 47.828125 53.679688 47.867188 53.761719 47.933594 C 53.882812 48.039062 54.042969 48.222656 54.125 48.398438 C 54.207031 48.566406 54.242188 48.777344 54.230469 48.964844 C 54.226562 49.160156 54.144531 49.351562 54.0625 49.527344 C 53.976562 49.695312 53.875 49.820312 53.726562 49.996094 C 53.5 50.273438 53.132812 50.664062 52.792969 50.960938 C 52.4375 51.265625 52.023438 51.566406 51.636719 51.804688 C 51.273438 52.023438 50.925781 52.195312 50.542969 52.347656 C 50.164062 52.492188 49.773438 52.660156 49.355469 52.679688 C 48.886719 52.703125 48.320312 52.601562 47.851562 52.410156 C 47.375 52.214844 46.851562 51.871094 46.550781 51.503906 C 46.28125 51.171875 46.113281 50.757812 46.070312 50.359375 C 46.023438 49.945312 46.144531 49.445312 46.320312 49.058594 C 46.488281 48.683594 46.773438 48.390625 47.082031 48.058594 C 47.445312 47.679688 47.976562 47.253906 48.386719 46.933594 C 48.726562 46.664062 49.039062 46.195312 49.355469 46.257812 C 49.820312 46.347656 50.726562 48.304688 50.726562 48.304688 "/>
</clipPath>
<clipPath id="clip17">
  <path d="M 51.867188 51.832031 L 57.925781 51.832031 L 57.925781 56.929688 L 51.867188 56.929688 Z M 51.867188 51.832031 "/>
</clipPath>
<clipPath id="clip18">
  <path d="M 56.632812 53.921875 C 55.269531 55.339844 54.367188 56.253906 53.929688 56.578125 C 53.726562 56.734375 53.574219 56.820312 53.425781 56.871094 C 53.320312 56.910156 53.25 56.921875 53.136719 56.921875 C 52.980469 56.914062 52.738281 56.882812 52.570312 56.804688 C 52.394531 56.722656 52.226562 56.585938 52.113281 56.433594 C 52 56.285156 51.914062 56.085938 51.886719 55.898438 C 51.855469 55.710938 51.867188 55.496094 51.929688 55.316406 C 51.992188 55.132812 52.074219 54.992188 52.242188 54.820312 C 52.53125 54.535156 53.113281 54.289062 53.65625 53.914062 C 54.429688 53.371094 55.675781 51.742188 56.417969 51.839844 C 57.042969 51.921875 58 53.140625 57.917969 53.757812 C 57.820312 54.507812 55.886719 55.351562 55.050781 55.910156 C 54.445312 56.316406 53.84375 56.746094 53.425781 56.871094 C 53.195312 56.941406 53 56.914062 52.84375 56.898438 C 52.730469 56.878906 52.664062 56.859375 52.570312 56.804688 C 52.425781 56.726562 52.21875 56.554688 52.113281 56.433594 C 52.042969 56.347656 52.007812 56.285156 51.96875 56.179688 C 51.914062 56.027344 51.855469 55.789062 51.875 55.601562 C 51.886719 55.414062 51.9375 55.246094 52.054688 55.054688 C 52.230469 54.765625 52.625 54.429688 52.9375 54.128906 C 53.269531 53.804688 53.664062 53.503906 53.980469 53.179688 C 54.292969 52.867188 54.492188 52.246094 54.835938 52.234375 C 55.320312 52.214844 56.632812 53.921875 56.632812 53.921875 "/>
</clipPath>
<clipPath id="clip19">
  <path d="M 58.417969 47.003906 L 61.148438 47.003906 L 61.148438 50.058594 L 58.417969 50.058594 Z M 58.417969 47.003906 "/>
</clipPath>
<clipPath id="clip20">
  <path d="M 61.144531 47.195312 C 60.726562 50.273438 59.125 50.273438 58.707031 49.851562 C 58.269531 49.421875 58.25 47.628906 58.679688 47.195312 C 59.09375 46.777344 61.144531 47.195312 61.144531 47.195312 "/>
</clipPath>
<clipPath id="clip21">
  <path d="M 47.933594 53.238281 L 60.109375 53.238281 L 60.109375 60.960938 L 47.933594 60.960938 Z M 47.933594 53.238281 "/>
</clipPath>
<clipPath id="clip22">
  <path d="M 60.09375 55.695312 C 58.804688 56.347656 59.445312 58.015625 59.417969 58.816406 C 59.398438 59.378906 59.429688 59.898438 59.1875 60.253906 C 58.949219 60.597656 58.511719 60.835938 58.007812 60.929688 C 57.21875 61.078125 56.050781 60.554688 54.8125 60.453125 C 53.105469 60.316406 49.726562 60.472656 48.695312 60.378906 C 48.34375 60.347656 48.117188 60.433594 47.992188 60.257812 C 47.773438 59.933594 48.269531 58.003906 48.488281 57.871094 C 48.554688 57.835938 48.585938 57.921875 48.707031 57.941406 C 49.238281 58.027344 51.929688 57.933594 53.125 57.960938 C 53.9375 57.976562 54.523438 57.882812 55.167969 58.039062 C 55.8125 58.203125 56.695312 59.109375 56.980469 58.910156 C 57.3125 58.679688 56.667969 57.039062 56.71875 56.277344 C 56.761719 55.679688 56.8125 55.140625 57.101562 54.695312 C 57.40625 54.214844 58.105469 53.773438 58.570312 53.539062 C 58.914062 53.371094 59.3125 53.140625 59.554688 53.296875 C 59.9375 53.527344 60.09375 55.695312 60.09375 55.695312 "/>
</clipPath>
<clipPath id="clip23">
  <path d="M 50.375 45.96875 L 54.25 45.96875 L 54.25 48.539062 L 50.375 48.539062 Z M 50.375 45.96875 "/>
</clipPath>
<clipPath id="clip24">
  <path d="M 50.519531 45.976562 C 51.835938 46.003906 52.332031 46.003906 52.710938 46.148438 C 53.085938 46.296875 53.46875 46.539062 53.71875 46.851562 C 53.96875 47.164062 54.355469 47.785156 54.207031 48.035156 C 53.992188 48.382812 52.207031 48.140625 51.773438 48.257812 C 51.613281 48.304688 51.59375 48.378906 51.449219 48.414062 C 51.226562 48.472656 50.710938 48.628906 50.519531 48.441406 C 50.210938 48.132812 50.519531 45.976562 50.519531 45.976562 "/>
</clipPath>
</defs>
<g id="surface1">
<g clip-path="url(#clip1)" clip-rule="nonzero">
<g clip-path="url(#clip2)" clip-rule="nonzero">
<path style=" stroke:none;fill-rule:nonzero;fill:rgb(49.803922%,9.803922%,65.882355%);fill-opacity:1;" d="M 2.605469 2.816406 L 19.730469 2.816406 L 19.730469 27.003906 L 2.605469 27.003906 Z M 2.605469 2.816406 "/>
</g>
</g>
<g clip-path="url(#clip3)" clip-rule="nonzero">
<g clip-path="url(#clip4)" clip-rule="nonzero">
<path style=" stroke:none;fill-rule:nonzero;fill:rgb(49.803922%,9.803922%,65.882355%);fill-opacity:1;" d="M 13.769531 18.648438 L 22.582031 18.648438 L 22.582031 30.902344 L 13.769531 30.902344 Z M 13.769531 18.648438 "/>
</g>
</g>
<g clip-path="url(#clip5)" clip-rule="nonzero">
<g clip-path="url(#clip6)" clip-rule="nonzero">
<path style=" stroke:none;fill-rule:nonzero;fill:rgb(49.803922%,9.803922%,65.882355%);fill-opacity:1;" d="M 19.6875 25.015625 L 28.5 25.015625 L 28.5 33.757812 L 19.6875 33.757812 Z M 19.6875 25.015625 "/>
</g>
</g>
<g clip-path="url(#clip7)" clip-rule="nonzero">
<g clip-path="url(#clip8)" clip-rule="nonzero">
<path style=" stroke:none;fill-rule:nonzero;fill:rgb(49.803922%,9.803922%,65.882355%);fill-opacity:1;" d="M 23.679688 29.402344 L 32.25 29.402344 L 32.25 37.558594 L 23.679688 37.558594 Z M 23.679688 29.402344 "/>
</g>
</g>
<g clip-path="url(#clip9)" clip-rule="nonzero">
<g clip-path="url(#clip10)" clip-rule="nonzero">
<path style=" stroke:none;fill-rule:nonzero;fill:rgb(49.803922%,9.803922%,65.882355%);fill-opacity:1;" d="M 27.261719 28.964844 L 37.164062 28.964844 L 37.164062 41.300781 L 27.261719 41.300781 Z M 27.261719 28.964844 "/>
</g>
</g>
<g clip-path="url(#clip11)" clip-rule="nonzero">
<g clip-path="url(#clip12)" clip-rule="nonzero">
<path style=" stroke:none;fill-rule:nonzero;fill:rgb(49.803922%,9.803922%,65.882355%);fill-opacity:1;" d="M 36.554688 35.953125 L 44.695312 35.953125 L 44.695312 44.664062 L 36.554688 44.664062 Z M 36.554688 35.953125 "/>
</g>
</g>
<g clip-path="url(#clip13)" clip-rule="nonzero">
<g clip-path="url(#clip14)" clip-rule="nonzero">
<path style=" stroke:none;fill-rule:nonzero;fill:rgb(49.803922%,9.803922%,65.882355%);fill-opacity:1;" d="M 38.925781 41.871094 L 49.71875 41.871094 L 49.71875 50.097656 L 38.925781 50.097656 Z M 38.925781 41.871094 "/>
</g>
</g>
<g clip-path="url(#clip15)" clip-rule="nonzero">
<g clip-path="url(#clip16)" clip-rule="nonzero">
<path style=" stroke:none;fill-rule:nonzero;fill:rgb(49.803922%,9.803922%,65.882355%);fill-opacity:1;" d="M 45.820312 46.007812 L 54.488281 46.007812 L 54.488281 55.21875 L 45.820312 55.21875 Z M 45.820312 46.007812 "/>
</g>
</g>
<g clip-path="url(#clip17)" clip-rule="nonzero">
<g clip-path="url(#clip18)" clip-rule="nonzero">
<path style=" stroke:none;fill-rule:nonzero;fill:rgb(49.803922%,9.803922%,65.882355%);fill-opacity:1;" d="M 51.625 51.589844 L 58.164062 51.589844 L 58.164062 57.171875 L 51.625 57.171875 Z M 51.625 51.589844 "/>
</g>
</g>
<g clip-path="url(#clip19)" clip-rule="nonzero">
<g clip-path="url(#clip20)" clip-rule="nonzero">
<path style=" stroke:none;fill-rule:nonzero;fill:rgb(49.803922%,9.803922%,65.882355%);fill-opacity:1;" d="M 58.429688 46.945312 L 61.394531 46.945312 L 61.394531 50.105469 L 58.429688 50.105469 Z M 58.429688 46.945312 "/>
</g>
</g>
<g clip-path="url(#clip21)" clip-rule="nonzero">
<g clip-path="url(#clip22)" clip-rule="nonzero">
<path style=" stroke:none;fill-rule:nonzero;fill:rgb(49.803922%,9.803922%,65.882355%);fill-opacity:1;" d="M 47.742188 53.046875 L 60.332031 53.046875 L 60.332031 61.183594 L 47.742188 61.183594 Z M 47.742188 53.046875 "/>
</g>
</g>
<g clip-path="url(#clip23)" clip-rule="nonzero">
<g clip-path="url(#clip24)" clip-rule="nonzero">
<path style=" stroke:none;fill-rule:nonzero;fill:rgb(49.803922%,9.803922%,65.882355%);fill-opacity:1;" d="M 50.269531 45.726562 L 54.457031 45.726562 L 54.457031 48.691406 L 50.269531 48.691406 Z M 50.269531 45.726562 "/>
</g>
</g>
</g>
</svg>
